{"title":"Rihanna - Pour It Up (Explicit) 720p x264 AAC E-Subs [GWC].mp4","uid":8997637,"size":55066553,"categoryP":"video","categoryS":"music_videos","magnet":"?xt=urn:btih:abb8ab40893fd4adedf89ce693209f7eb6643606&amp;dn=Rihanna+-+Pour+It+Up+%28Explicit%29+720p+x264+AAC+E-Subs+%5BGWC%5D.mp4&amp;tr=udp%3A%2F%2Ftracker.openbittorrent.com%3A80&amp;tr=udp%3A%2F%2Fopen.demonii.com%3A1337&amp;tr=udp%3A%2F%2Ftracker.coppersurfer.tk%3A6969&amp;tr=udp%3A%2F%2Fexodus.desync.com%3A6969","seeders":1,"leechers":0,"uploader":"canc232","files":1,"time":1380896316,"description":"Rihanna - Pour It Up (Explicit) 720p x264 AAC E-Subs [GWC]\n\n\nIn her latest video for new song &quot;Pour It Up,&quot; Rihanna reminds everyone that she's not only better at twerking than Miley Cyrus,  she is clearly also better at swinging around stripper poles, touching herself inappropriately with no need for foam fingers, and wearing as little clothing as possible.\n\n\nCOVER : &lt;a href=&quot;\nhttp://s20.postimg.org/lqypj5l31/Rihanna_Pour_It_Up.jpg&quot; rel=&quot;nofollow&quot; target=&quot;_NEW&quot;&gt;\nhttp://s20.postimg.org/lqypj5l31/Rihanna_Pour_It_Up.jpg&lt;/a&gt;\n\n\nTHUMBNAIL IMAGE : &lt;a href=&quot;\nhttp://img845.imageshack.us/img845/3186/r0d4.jpg&quot; rel=&quot;nofollow&quot; target=&quot;_NEW&quot;&gt;\nhttp://img845.imageshack.us/img845/3186/r0d4.jpg&lt;/a&gt;\n\n\n\nMEDIA INFO :\n\nGeneral \nFormat : MPEG-4 \nFormat profile : Base Media \nCodec ID : isom \nFile size : 52.5 MiB \nDuration : 3mn 16s \nOverall bit rate mode : Variable \nOverall bit rate : 2 242 Kbps \n\nVideo \nID : 1 \nFormat : AVC \nFormat profile : &lt;a class=&quot;__cf_email__&quot; href=&quot;/cdn-cgi/l/email-protection&quot; data-cfemail=&quot;a4eccdc3cce4e8978a95&quot;&gt;[email&amp;#160;protected]&lt;/a&gt;&lt;script cf-hash='f9e31' type=&quot;text/javascript&quot;&gt;\n/* &lt;![CDATA[ */!function(){try{var t=&quot;currentScript&quot;in document?document.currentScript:function(){for(var t=document.getElementsByTagName(&quot;script&quot;),e=t.length;e--;)if(t[e].getAttribute(&quot;cf-hash&quot;))return t[e]}();if(t&amp;&amp;t.previousSibling){var e,r,n,i,c=t.previousSibling,a=c.getAttribute(&quot;data-cfemail&quot;);if(a){for(e=&quot;&quot;,r=parseInt(a.substr(0,2),16),n=2;a.length-n;n+=2)i=parseInt(a.substr(n,2),16)^r,e+=String.fromCharCode(i);e=document.createTextNode(e),c.parentNode.replaceChild(e,c)}}}catch(u){}}();/* ]]&gt; */&lt;/script&gt; \nFormat settings, CABAC : Yes \nFormat settings, ReFrames : 1 frame \nDuration : 3mn 16s \nSource duration : 3mn 16s \nBit rate : 2 149 Kbps \nMaximum bit rate : 3 695 Kbps \nWidth : 1 280 pixels \nHeight : 720 pixels \nDisplay aspect ratio : 16:9 \nFrame rate mode : Constant \nFrame rate : 23.976 fps \nStream size : 50.3 MiB (96%) \nTitle : Rihanna - Pour It Up (Explicit) 720p x264 AAC E-Subs [GWC] \n\nAudio \nID : 2 \nFormat : AAC \nFormat profile : LC \nCodec ID : 40 \nDuration : 3mn 16s \nBit rate mode : Variable \nChannel(s) : 2 channels \nChannel positions : Front: L R \nSampling rate : 48.0 KHz \nCompression mode : Lossy \nStream size : 2.14 MiB (4%) \nLanguage : English \n\nText \nID : 3 \nFormat : Timed Text \nCodec ID : tx3g \nDuration : 3mn 5s \nStream size : 2.93 KiB (0%) \nTitle : English Subtitle by [GWC] \nLanguage : English","torrent":{"xt":"urn:btih:abb8ab40893fd4adedf89ce693209f7eb6643606","amp;dn":"Rihanna+-+Pour+It+Up+%28Explicit%29+720p+x264+AAC+E-Subs+%5BGWC%5D.mp4","amp;tr":["udp%3A%2F%2Ftracker.openbittorrent.com%3A80","udp%3A%2F%2Fopen.demonii.com%3A1337","udp%3A%2F%2Ftracker.coppersurfer.tk%3A6969","udp%3A%2F%2Fexodus.desync.com%3A6969"],"infoHash":"abb8ab40893fd4adedf89ce693209f7eb6643606","infoHashBuffer":{"type":"Buffer","data":[171,184,171,64,137,63,212,173,237,248,156,230,147,32,159,126,182,100,54,6]},"announce":[],"urlList":[]}}